# xmcd
#
# Track frame offsets:
#	150
#	19973
#	31402
#	45079
#	59606
#	71709
#	85205
#	99398
#	110540
#	123806
#	140078
#	149813
#	164208
#	192793
#	206582
#	220169
#	235185
#	241701
#	257134
#	268325
#	282880
#	296982
#	306786
#	328199
#	336947
#
# Disc length: 4654 seconds
#
# Revision: 1
# Processed by: cddbd v1.5.2PL0 Copyright (c) Steve Scherf et al.
# Submitted via: EZCDAudioConverter 2.1.7.1
#
DISCID=90122c19
DTITLE=V/A - Music To Die For 1/2
DYEAR=2011
DGENRE=
TTITLE0=Messrs. Ernest Pike and Walter Miller - Excelsior!
TTITLE1=Frank Miller - Don't Go Down The Mine Dad
TTITLE2=Vernon Dalhart  - Wreck Of The Old '97
TTITLE3=Louis Armstrong - St. James Infirmary
TTITLE4=Mattie Delaney - Tallahatchie River Blues
TTITLE5=Ethel Waters - Miss Otis Regrets
TTITLE6=Dorsey Dixon - Wreck On The Highway (I Didn't Hear Nobody Pray)
TTITLE7=Eddy Duchin featuring Patricia Norman - Ol' Man Mose
TTITLE8=Lord Executor - We Mourn The Death Of Sir Murchison Fletcher
TTITLE9=Artie Shaw featuring Pauline Byrne - Gloomy Sunday
TTITLE10=Leadbelly - Black Girl
TTITLE11=St. Louis Jimmy Oden - Goin' Down Slow
TTITLE12=Roy Acuff - Wreck On The Highway
TTITLE13=Lena Horne - Frankie And Johnny
TTITLE14=Jimmie Osborne - The Death Of Little Kathy Fiscus
TTITLE15=Vaughn Monroe - Riders In The Sky
TTITLE16=Red Foley - Old Shep
TTITLE17=Tom Lehrer - I Hold Your Hand In Mine
TTITLE18=Eugene Fox - Sinner's Dream
TTITLE19=Ferlin Husky - The Drunken Driver
TTITLE20=Four Freshmen - Their Hearts Were Full Of Spring
TTITLE21=Donald Woods and The Vel-Aires - Death Of An Angel
TTITLE22=The Cheers - Black Denim Trousers And Motorcycle Boots
TTITLE23=Stanley Holloway - Sweeney Todd The Barber
TTITLE24=Bill Hayes - Message From James Dean
EXTD=
EXTT0=
EXTT1=
EXTT2=
EXTT3=
EXTT4=
EXTT5=
EXTT6=
EXTT7=
EXTT8=
EXTT9=
EXTT10=
EXTT11=
EXTT12=
EXTT13=
EXTT14=
EXTT15=
EXTT16=
EXTT17=
EXTT18=
EXTT19=
EXTT20=
EXTT21=
EXTT22=
EXTT23=
EXTT24=
PLAYORDER=
